<?xml version="1.0" encoding="utf-8"?>
<!-- Generator: Adobe Illustrator 16.0.0, SVG Export Plug-In . SVG Version: 6.00 Build 0)  -->
<!DOCTYPE svg PUBLIC "-//W3C//DTD SVG 1.1//EN" "http://www.w3.org/Graphics/SVG/1.1/DTD/svg11.dtd">
<svg version="1.1" id="Layer_1" xmlns="http://www.w3.org/2000/svg" xmlns:xlink="http://www.w3.org/1999/xlink" x="0px" y="0px"
	 width="512px" height="512px" viewBox="0 0 512 512" enable-background="new 0 0 512 512" xml:space="preserve">
<path fill="#FCFCFC" d="M419.195,156.531H94.248c-7.313,0-13.299-5.984-13.299-13.302v-9.439c0-7.318,5.986-13.302,13.299-13.302
	h324.947c7.313,0,13.305,5.983,13.305,13.302v9.439C432.5,150.547,426.508,156.531,419.195,156.531"/>
<path fill="#FCFCFC" d="M419.195,277.683H94.248c-7.313,0-13.299-5.981-13.299-13.3v-9.438c0-7.315,5.986-13.302,13.299-13.302
	h324.947c7.313,0,13.305,5.986,13.305,13.302v9.438C432.5,271.701,426.508,277.683,419.195,277.683"/>
<path fill="#FCFCFC" d="M419.195,392.933H94.248c-7.313,0-13.299-5.98-13.299-13.299v-9.442c0-7.313,5.986-13.304,13.299-13.304
	h324.947c7.313,0,13.305,5.991,13.305,13.304v9.442C432.5,386.952,426.508,392.933,419.195,392.933"/>
</svg>
