<!-- Generator: Adobe Illustrator 19.1.0, SVG Export Plug-In  -->
<svg version="1.1"
	 xmlns="http://www.w3.org/2000/svg" xmlns:xlink="http://www.w3.org/1999/xlink" xmlns:a="http://ns.adobe.com/AdobeSVGViewerExtensions/3.0/"
	 x="0px" y="0px" width="41.5px" height="76px" viewBox="0 0 41.5 76" style="enable-background:new 0 0 41.5 76;"
	 xml:space="preserve">
<style type="text/css">
	.st0{fill:#FCFCFC;}
</style>
<defs>
</defs>
<g id="new_1_">
	<g>
		<path class="st0" d="M14.6,1.3v6.9c0,1.5,0.4,3,1.3,4.2L32.3,37c0.4,0.6,0.4,1.5,0,2.1L15.9,63.6c-0.8,1.2-1.3,2.7-1.3,4.2v6.9
			c0,1.2,1.4,1.8,2.1,0.9l24.4-36.5c0.4-0.6,0.4-1.5,0-2.1L16.7,0.5C16-0.5,14.6,0.1,14.6,1.3z"/>
	</g>
	<g>
		<path class="st0" d="M0,74.7L0,1.3c0-1.2,1.4-1.8,2.1-0.9L26.5,37c0.4,0.6,0.4,1.5,0,2.1L2.1,75.6C1.4,76.5,0,75.9,0,74.7z"/>
	</g>
</g>
</svg>
