<!-- Generator: Adobe Illustrator 19.1.0, SVG Export Plug-In  -->
<svg version="1.1"
	 xmlns="http://www.w3.org/2000/svg" xmlns:xlink="http://www.w3.org/1999/xlink" xmlns:a="http://ns.adobe.com/AdobeSVGViewerExtensions/3.0/"
	 x="0px" y="0px" width="69.2px" height="54px" viewBox="0 0 69.2 54" style="enable-background:new 0 0 69.2 54;"
	 xml:space="preserve">
<style type="text/css">
	.st0{fill:#F8F8F8;}
</style>
<defs>
</defs>
<g id="new_copy">
	<g>
		<path class="st0" d="M45.5,8H28.2c-1.6,0-2.9-1.3-2.9-2.9V2.9c0-1.6,1.3-2.9,2.9-2.9l17.3,0c1.6,0,2.9,1.3,2.9,2.9v2.1
			C48.4,6.7,47.1,8,45.5,8z"/>
		<circle class="st0" cx="35.8" cy="30.5" r="11.9"/>
		<path class="st0" d="M62.1,6h-55C3.2,6,0,9.2,0,13.1v33.8C0,50.8,3.2,54,7.1,54h55c3.9,0,7.1-3.2,7.1-7.1V13.1
			C69.2,9.2,66,6,62.1,6z M9,20.6c-2,0-3.6-1.6-3.6-3.6c0-2,1.6-3.6,3.6-3.6s3.6,1.6,3.6,3.6C12.6,19,11,20.6,9,20.6z M35.8,47.8
			c-9.6,0-17.3-7.8-17.3-17.3s7.8-17.3,17.3-17.3s17.3,7.8,17.3,17.3S45.4,47.8,35.8,47.8z"/>
	</g>
</g>
</svg>
