<?xml version="1.0" encoding="utf-8"?>
<!-- Generator: Adobe Illustrator 16.0.0, SVG Export Plug-In . SVG Version: 6.00 Build 0)  -->
<!DOCTYPE svg PUBLIC "-//W3C//DTD SVG 1.1//EN" "http://www.w3.org/Graphics/SVG/1.1/DTD/svg11.dtd">
<svg version="1.1" xmlns="http://www.w3.org/2000/svg" xmlns:xlink="http://www.w3.org/1999/xlink" x="0px" y="0px" width="512px"
	 height="512px" viewBox="0 0 512 512" enable-background="new 0 0 512 512" xml:space="preserve">
<g id="Layer_1">
	<g>
		<circle fill="none" stroke="#F2F2F2" stroke-width="30" stroke-miterlimit="10" cx="256.455" cy="256.093" r="224.445"/>
		<path fill="#F8F8F8" d="M294.804,180.215H233.33c-5.763,0-10.488-4.715-10.488-10.485v-7.633c0-5.764,4.725-10.482,10.488-10.482
			h61.474c5.767,0,10.489,4.719,10.489,10.482v7.633C305.293,175.5,300.57,180.215,294.804,180.215"/>
		<path fill="#F8F8F8" d="M302.836,260.277c0,23.378-18.951,42.328-42.329,42.328c-23.38,0-42.335-18.95-42.335-42.328
			c0-23.38,18.955-42.335,42.335-42.335C283.885,217.942,302.836,236.897,302.836,260.277"/>
		<path fill="#F8F8F8" d="M353.975,173.043h-195.95c-13.882,0-25.239,11.354-25.239,25.235v120.467
			c0,13.885,11.357,25.242,25.239,25.242h195.95c13.884,0,25.239-11.357,25.239-25.242V198.278
			C379.214,184.397,367.858,173.043,353.975,173.043 M164.945,225.049c-7.103,0-12.865-5.763-12.865-12.865
			c0-7.11,5.763-12.868,12.865-12.868c7.113,0,12.868,5.758,12.868,12.868C177.813,219.286,172.058,225.049,164.945,225.049
			 M260.507,322.079c-34.136,0-61.804-27.672-61.804-61.802c0-34.132,27.668-61.801,61.804-61.801
			c34.13,0,61.801,27.669,61.801,61.801C322.308,294.407,294.637,322.079,260.507,322.079"/>
	</g>
</g>
<g id="Layer_2">
</g>
</svg>
