<?xml version="1.0" encoding="utf-8"?>
<!-- Generator: Adobe Illustrator 16.0.0, SVG Export Plug-In . SVG Version: 6.00 Build 0)  -->
<!DOCTYPE svg PUBLIC "-//W3C//DTD SVG 1.1//EN" "http://www.w3.org/Graphics/SVG/1.1/DTD/svg11.dtd">
<svg version="1.1" xmlns="http://www.w3.org/2000/svg" xmlns:xlink="http://www.w3.org/1999/xlink" x="0px" y="0px" width="512px"
	 height="512px" viewBox="0 0 512 512" enable-background="new 0 0 512 512" xml:space="preserve">
<g id="Layer_1">
	<g>
		<circle fill="none" stroke="#F2F2F2" stroke-width="30" stroke-miterlimit="10" cx="256.139" cy="255.501" r="224.445"/>
		<path fill="#F2F2F2" d="M293.398,356.315c3.808-1.271,6.921-0.067,9.335,3.618c2.414,3.685,1.968,7.047-1.333,10.099
			c-1.017,1.018-3.241,2.665-6.665,4.953c-3.434,2.286-9.404,4.954-17.914,8c-8.508,3.05-17.081,4.569-25.72,4.569
			c-22.098,0-37.211-7.998-45.338-23.998c-7.111-14.988-5.842-32.008,3.808-51.061l16-31.627c5.591-11.17,5.846-18.539,0.766-22.098
			c-1.017-1.012-3.172-1.52-6.479-1.52c-2.284,0-4.759,0.251-7.43,0.759c-2.667,0.51-4.887,1.016-6.665,1.527l-2.286,0.757
			c-3.809,1.276-6.92,0.13-9.335-3.427c-2.415-3.554-1.969-6.856,1.33-9.907c1.275-1.268,3.497-2.982,6.673-5.146
			c3.172-2.155,9.015-4.825,17.523-7.997c8.513-3.174,17.082-4.761,25.72-4.761c22.61,0,37.847,7.998,45.724,23.998
			c7.11,14.992,5.84,32.013-3.808,51.06L271.3,335.741c-5.588,11.431-5.843,18.921-0.763,22.48c0.763,0.761,2.917,1.138,6.476,1.138
			c2.286,0,4.765-0.251,7.432-0.759c2.665-0.51,4.89-1.017,6.668-1.527L293.398,356.315z M240.434,173.426
			c0-26.417,13.212-39.625,39.63-39.625c26.413,0,39.626,13.208,39.626,39.625c0,26.418-13.213,39.627-39.626,39.627
			C253.646,213.053,240.434,199.845,240.434,173.426"/>
	</g>
</g>
<g id="Layer_2">
</g>
</svg>
