<?xml version="1.0" encoding="utf-8"?>
<!-- Generator: Adobe Illustrator 16.0.0, SVG Export Plug-In . SVG Version: 6.00 Build 0)  -->
<!DOCTYPE svg PUBLIC "-//W3C//DTD SVG 1.1//EN" "http://www.w3.org/Graphics/SVG/1.1/DTD/svg11.dtd">
<svg version="1.1" id="Layer_1" xmlns="http://www.w3.org/2000/svg" xmlns:xlink="http://www.w3.org/1999/xlink" x="0px" y="0px"
	 width="31px" height="21px" viewBox="0 0 31 21" enable-background="new 0 0 31 21" xml:space="preserve">
<g opacity="0.88">
	<g>
		<g>
			<g>
				<defs>
					<rect id="SVGID_1_" x="2.703" y="5.08" width="10.584" height="10.584"/>
				</defs>
				<clipPath id="SVGID_2_">
					<use xlink:href="#SVGID_1_"  overflow="visible"/>
				</clipPath>
				<path clip-path="url(#SVGID_2_)" fill="#C1F732" d="M10.784,10.371c-0.392,0.916-0.764,2.632-2.789,2.89
					C6.288,13.479,3.86,11.889,4.9,8.803c0.484-1.436,2.667-3.651,5.883-2.444c0.753,0.284-1.507-0.696-1.195-1.035
					C9.086,5.165,8.551,5.079,7.996,5.079c-2.923,0-5.292,2.37-5.292,5.292c0,2.924,2.37,5.293,5.292,5.293s5.292-2.371,5.292-5.293
					c0-0.31-0.027-0.615-0.079-0.911C12.544,8.581,11.265,9.25,10.784,10.371"/>
			</g>
		</g>
	</g>
</g>
<g>
	<path fill="#FCFCFC" d="M13.844,9.361c0-0.602,0.213-1.116,0.639-1.542c0.426-0.426,0.939-0.638,1.541-0.638
		c0.604,0,1.117,0.212,1.543,0.638c0.426,0.425,0.639,0.939,0.639,1.542s-0.213,1.116-0.639,1.542
		c-0.426,0.426-0.939,0.638-1.543,0.638c-0.468,0-0.883-0.128-1.246-0.386v1.319h-0.934V9.361z M16.023,10.606
		c0.346,0,0.641-0.123,0.883-0.364c0.242-0.243,0.363-0.537,0.363-0.881c0-0.344-0.121-0.638-0.363-0.881s-0.537-0.364-0.883-0.364
		c-0.343,0-0.637,0.121-0.88,0.364s-0.365,0.537-0.365,0.881c0,0.345,0.122,0.638,0.365,0.881
		C15.386,10.485,15.68,10.606,16.023,10.606z"/>
	<path fill="#FCFCFC" d="M21.8,7.087v0.934h-1.867v0.778H21.8v0.935h-1.867v0.778H21.8v0.934h-2.803V7.087H21.8z"/>
	<path fill="#FCFCFC" d="M22.462,6.42l3.426,3.426V7.087h0.936V12.1l-3.428-3.424v2.771h-0.935L22.462,6.42L22.462,6.42z"/>
</g>
<g>
	<path fill="#FCFCFC" d="M14.853,13.723c0.02,0,0.034,0.008,0.043,0.021c0.009,0.014,0.014,0.028,0.014,0.048
		s-0.004,0.034-0.014,0.05c-0.009,0.017-0.024,0.021-0.043,0.021h-0.382v1.473c0,0.021-0.008,0.034-0.024,0.044
		c-0.016,0.011-0.033,0.017-0.052,0.017s-0.037-0.006-0.052-0.017c-0.015-0.01-0.023-0.022-0.023-0.044v-1.473h-0.384
		c-0.018,0-0.032-0.006-0.042-0.021c-0.01-0.014-0.015-0.03-0.015-0.049s0.004-0.033,0.014-0.048
		c0.009-0.016,0.024-0.023,0.043-0.023h0.917V13.723z"/>
	<path fill="#FCFCFC" d="M16.42,14.591h-0.66v0.743c0,0.021-0.008,0.034-0.024,0.044c-0.016,0.011-0.033,0.017-0.052,0.017
		c-0.02,0-0.037-0.006-0.052-0.017c-0.016-0.01-0.023-0.022-0.023-0.044v-1.559c0-0.021,0.008-0.032,0.023-0.043
		c0.015-0.008,0.032-0.012,0.052-0.012c0.019,0,0.035,0.004,0.052,0.012c0.018,0.011,0.024,0.022,0.024,0.043v0.685h0.66v-0.685
		c0-0.021,0.008-0.032,0.023-0.043c0.016-0.008,0.031-0.012,0.053-0.012c0.018,0,0.035,0.004,0.051,0.012
		c0.016,0.011,0.025,0.022,0.025,0.043v1.559c0,0.021-0.01,0.034-0.025,0.044c-0.014,0.011-0.033,0.017-0.051,0.017
		c-0.021,0-0.037-0.006-0.053-0.017c-0.017-0.01-0.023-0.022-0.023-0.044V14.591z"/>
	<path fill="#FCFCFC" d="M17.682,14.49h0.359c0.018,0,0.031,0.007,0.041,0.021c0.012,0.015,0.016,0.029,0.016,0.05
		c0,0.015-0.004,0.027-0.012,0.041c-0.01,0.015-0.023,0.021-0.045,0.021h-0.359v0.634h0.73c0.02,0,0.033,0.008,0.043,0.021
		c0.012,0.015,0.016,0.029,0.016,0.049c0,0.017-0.004,0.033-0.014,0.047c-0.008,0.016-0.021,0.021-0.045,0.021H17.6
		c-0.018,0-0.031-0.006-0.047-0.017c-0.016-0.01-0.021-0.022-0.021-0.044v-1.557c0-0.021,0.008-0.032,0.021-0.043
		c0.016-0.01,0.029-0.014,0.047-0.014h0.813c0.021,0,0.037,0.006,0.045,0.021c0.01,0.014,0.015,0.027,0.015,0.046
		c0,0.021-0.005,0.037-0.017,0.052c-0.011,0.016-0.022,0.021-0.043,0.021h-0.729v0.629H17.682z"/>
	<path fill="#FCFCFC" d="M20.342,13.777c0-0.021,0.008-0.032,0.021-0.043c0.016-0.01,0.031-0.014,0.047-0.014h0.811
		c0.021,0,0.033,0.006,0.045,0.021c0.008,0.014,0.014,0.027,0.014,0.046c0,0.021-0.006,0.037-0.016,0.052
		c-0.012,0.016-0.022,0.021-0.043,0.021h-0.729v0.63h0.363c0.016,0,0.026,0.007,0.039,0.021c0.01,0.014,0.016,0.029,0.016,0.049
		c0,0.016-0.006,0.028-0.014,0.041c-0.008,0.016-0.021,0.021-0.041,0.021h-0.363v0.716c0,0.021-0.006,0.034-0.021,0.044
		c-0.018,0.01-0.033,0.016-0.053,0.016s-0.037-0.006-0.053-0.016s-0.023-0.023-0.023-0.044V13.777z"/>
	<path fill="#FCFCFC" d="M21.984,13.775c0-0.021,0.008-0.032,0.021-0.043c0.017-0.008,0.033-0.012,0.056-0.012
		c0.018,0,0.032,0.004,0.051,0.012c0.016,0.011,0.022,0.022,0.022,0.043v1.559c0,0.021-0.008,0.034-0.022,0.044
		c-0.019,0.011-0.033,0.017-0.051,0.017c-0.021,0-0.039-0.006-0.056-0.017c-0.017-0.01-0.021-0.022-0.021-0.044V13.775z"/>
	<path fill="#FCFCFC" d="M23,13.775c0-0.032,0.02-0.053,0.059-0.055h0.404c0.066,0,0.131,0.006,0.189,0.021
		c0.059,0.014,0.111,0.04,0.156,0.072c0.045,0.035,0.08,0.082,0.106,0.142c0.024,0.06,0.039,0.13,0.039,0.215
		c0,0.072-0.009,0.134-0.027,0.187c-0.018,0.051-0.043,0.095-0.073,0.129c-0.031,0.037-0.068,0.063-0.113,0.084
		c-0.043,0.021-0.09,0.035-0.141,0.043l0.352,0.678c0.008,0.008,0.01,0.018,0.01,0.029c0,0.021-0.01,0.037-0.027,0.055
		c-0.018,0.016-0.039,0.023-0.059,0.023s-0.035-0.01-0.047-0.026c-0.016-0.019-0.023-0.035-0.033-0.054l-0.354-0.688h-0.289v0.702
		c0,0.021-0.01,0.034-0.025,0.044s-0.033,0.018-0.051,0.018c-0.02,0-0.037-0.008-0.053-0.018C23.007,15.367,23,15.354,23,15.333
		V13.775z M23.152,13.859v0.642h0.311c0.104,0,0.188-0.022,0.25-0.074c0.063-0.05,0.094-0.132,0.094-0.245
		c0-0.115-0.031-0.197-0.094-0.246c-0.063-0.05-0.146-0.072-0.25-0.072h-0.311V13.859z"/>
	<path fill="#FCFCFC" d="M25.117,15.27c0.107,0,0.191-0.026,0.252-0.08c0.059-0.054,0.09-0.131,0.09-0.236
		c0-0.083-0.02-0.148-0.057-0.197c-0.037-0.048-0.084-0.087-0.141-0.115c-0.058-0.031-0.117-0.057-0.185-0.078
		c-0.063-0.021-0.127-0.047-0.183-0.08c-0.059-0.03-0.104-0.072-0.143-0.127c-0.038-0.054-0.057-0.127-0.057-0.22
		c0-0.084,0.016-0.153,0.047-0.206c0.029-0.054,0.068-0.096,0.115-0.127c0.049-0.031,0.1-0.053,0.158-0.063
		c0.057-0.013,0.11-0.021,0.164-0.021c0.043,0,0.088,0.004,0.135,0.012c0.045,0.006,0.086,0.018,0.123,0.027
		c0.037,0.014,0.065,0.027,0.092,0.045c0.023,0.018,0.035,0.036,0.035,0.057c0,0.017-0.006,0.033-0.019,0.055
		c-0.012,0.021-0.026,0.029-0.051,0.029c-0.011,0-0.021-0.004-0.039-0.014c-0.017-0.009-0.035-0.02-0.062-0.029
		c-0.022-0.01-0.055-0.021-0.09-0.028c-0.035-0.011-0.08-0.015-0.131-0.015c-0.043,0-0.084,0.004-0.121,0.014
		c-0.041,0.008-0.076,0.021-0.107,0.043c-0.03,0.021-0.055,0.048-0.073,0.083c-0.019,0.033-0.024,0.076-0.024,0.127
		c0,0.067,0.018,0.124,0.055,0.163s0.084,0.07,0.141,0.097s0.117,0.052,0.184,0.071c0.067,0.02,0.127,0.051,0.185,0.088
		c0.057,0.037,0.104,0.087,0.142,0.146c0.036,0.063,0.057,0.146,0.057,0.25c0,0.082-0.014,0.151-0.035,0.211
		c-0.023,0.062-0.057,0.108-0.1,0.147s-0.095,0.067-0.152,0.086c-0.061,0.019-0.125,0.027-0.195,0.027
		c-0.072,0-0.139-0.011-0.195-0.027c-0.059-0.019-0.106-0.04-0.147-0.065c-0.039-0.023-0.07-0.051-0.093-0.079
		c-0.021-0.027-0.03-0.054-0.03-0.073s0.006-0.037,0.021-0.059c0.014-0.019,0.029-0.026,0.047-0.026
		c0.017,0,0.029,0.011,0.045,0.028c0.017,0.021,0.037,0.041,0.064,0.065c0.025,0.023,0.063,0.046,0.107,0.063
		C24.988,15.257,25.047,15.27,25.117,15.27z"/>
	<path fill="#FCFCFC" d="M27.283,13.723c0.018,0,0.033,0.008,0.043,0.021c0.008,0.014,0.014,0.028,0.014,0.048
		s-0.006,0.034-0.014,0.05c-0.01,0.017-0.025,0.021-0.043,0.021h-0.385v1.473c0,0.021-0.008,0.034-0.021,0.044
		c-0.016,0.011-0.033,0.017-0.053,0.017s-0.037-0.006-0.053-0.017c-0.017-0.01-0.021-0.022-0.021-0.044v-1.473h-0.385
		c-0.02,0-0.033-0.006-0.043-0.021c-0.01-0.014-0.016-0.03-0.016-0.049s0.006-0.033,0.016-0.048c0.01-0.016,0.021-0.023,0.043-0.023
		h0.918V13.723z"/>
</g>
<path fill="#FFFFFF" d="M7.996,15.645c-2.907,0-5.273-2.366-5.273-5.273c0-2.906,2.366-5.272,5.273-5.272
	c2.908,0,5.272,2.365,5.272,5.272C13.268,13.278,10.904,15.645,7.996,15.645z M7.996,5.872c-2.481,0-4.5,2.019-4.5,4.5
	s2.019,4.501,4.5,4.501c2.481,0,4.5-2.02,4.5-4.501C12.496,7.89,10.478,5.872,7.996,5.872z"/>
</svg>
