<?xml version="1.0" encoding="utf-8"?>
<!-- Generator: Adobe Illustrator 16.0.0, SVG Export Plug-In . SVG Version: 6.00 Build 0)  -->
<!DOCTYPE svg PUBLIC "-//W3C//DTD SVG 1.1//EN" "http://www.w3.org/Graphics/SVG/1.1/DTD/svg11.dtd">
<svg version="1.1" xmlns="http://www.w3.org/2000/svg" xmlns:xlink="http://www.w3.org/1999/xlink" x="0px" y="0px" width="512px"
	 height="512px" viewBox="0 0 512 512" enable-background="new 0 0 512 512" xml:space="preserve">
<g id="Layer_1">
	<g>
		<circle fill="none" stroke="#F2F2F2" stroke-width="30" stroke-miterlimit="10" cx="256.139" cy="255.501" r="224.445"/>
		<path fill="#FFFFFF" d="M144.179,149.839c-2.313,0-4.19,1.877-4.19,4.192v187.28c0,2.313,1.877,4.19,4.19,4.19h108.809V149.839
			H144.179z M243.947,226.506c0,2.072-1.695,3.767-3.767,3.767h-87.386c-2.072,0-3.767-1.694-3.767-3.767
			c0-2.071,1.694-3.767,3.767-3.767h87.386C242.252,222.739,243.947,224.435,243.947,226.506 M243.947,199.387
			c0,2.074-1.695,3.767-3.767,3.767h-87.386c-2.072,0-3.767-1.692-3.767-3.767c0-2.071,1.694-3.767,3.767-3.767h87.386
			C242.252,195.62,243.947,197.315,243.947,199.387 M243.947,175.28c0,2.07-1.695,3.767-3.767,3.767h-87.386
			c-2.072,0-3.767-1.696-3.767-3.767c0-2.068,1.694-3.767,3.767-3.767h87.386C242.252,171.514,243.947,173.212,243.947,175.28"/>
		<path fill="#FFFFFF" d="M347.029,149.841h-88.016v195.661h108.805c2.319,0,4.193-1.878,4.193-4.19V178.135L347.029,149.841z
			 M346.888,178.385l-0.262-25.435l22.614,25.2L346.888,178.385z"/>
	</g>
</g>
<g id="Layer_2">
</g>
</svg>
