<!-- Generator: Adobe Illustrator 19.1.0, SVG Export Plug-In  -->
<svg version="1.1"
	 xmlns="http://www.w3.org/2000/svg" xmlns:xlink="http://www.w3.org/1999/xlink" xmlns:a="http://ns.adobe.com/AdobeSVGViewerExtensions/3.0/"
	 x="0px" y="0px" width="60.1px" height="59.9px" viewBox="0 0 60.1 59.9" style="enable-background:new 0 0 60.1 59.9;"
	 xml:space="preserve">
<style type="text/css">
	.st0{fill:#FFFFFF;}
</style>
<defs>
</defs>
<g>
	<circle class="st0" cx="51" cy="35.2" r="9.2"/>
	<circle class="st0" cx="29.8" cy="9.2" r="9.2"/>
	<path class="st0" d="M43.8,14.2H1.9C0.9,14.2,0,15,0,16.1V58c0,1.1,0.9,1.9,1.9,1.9h5.2c-1.1-1.5-1.8-3.3-1.8-5.4
		c0-4.9,3.9-8.8,8.8-8.8s8.8,3.9,8.8,8.8c0,2-0.7,3.9-1.8,5.4h22.9c1.1,0,1.9-0.9,1.9-1.9V16.1C45.8,15,44.9,14.2,43.8,14.2z"/>
</g>
</svg>
