<?xml version="1.0" encoding="utf-8"?>
<!-- Generator: Adobe Illustrator 16.0.0, SVG Export Plug-In . SVG Version: 6.00 Build 0)  -->
<!DOCTYPE svg PUBLIC "-//W3C//DTD SVG 1.1//EN" "http://www.w3.org/Graphics/SVG/1.1/DTD/svg11.dtd">
<svg version="1.1" id="Layer_1" xmlns="http://www.w3.org/2000/svg" xmlns:xlink="http://www.w3.org/1999/xlink" x="0px" y="0px"
	 width="512px" height="512px" viewBox="0 0 512 512" enable-background="new 0 0 512 512" xml:space="preserve">
<g id="Layer_1_1_">
	<g>
		<circle fill="none" stroke="#FFFFFF" stroke-width="30" stroke-miterlimit="10" cx="256.139" cy="255.501" r="224.445"/>
		<path fill="#FFFFFF" d="M397.463,261.08c0,20.709-16.791,37.504-37.502,37.504c-20.715,0-37.51-16.795-37.51-37.504
			c0-20.715,16.795-37.51,37.51-37.51C380.672,223.57,397.463,240.365,397.463,261.08"/>
		<path fill="#FFFFFF" d="M311.076,154.862c0,20.714-16.795,37.505-37.505,37.505c-20.713,0-37.501-16.791-37.501-37.505
			c0-20.713,16.788-37.506,37.501-37.506C294.281,117.356,311.076,134.149,311.076,154.862"/>
		<path fill="#FFFFFF" d="M330.885,175.281h-171.34c-4.307,0-7.835,3.522-7.835,7.83v171.342c0,4.307,3.528,7.832,7.835,7.832
			h21.073c-4.691-6.07-7.513-13.662-7.513-21.924c0-19.85,16.093-35.938,35.938-35.938c19.847,0,35.934,16.088,35.934,35.938
			c0,8.262-2.822,15.854-7.51,21.924h93.418c4.307,0,7.831-3.525,7.831-7.832V183.111
			C338.716,178.803,335.191,175.281,330.885,175.281"/>
	</g>
</g>
<g id="Layer_2">
</g>
</svg>
