<!-- Generator: Adobe Illustrator 19.1.0, SVG Export Plug-In  -->
<svg version="1.1"
	 xmlns="http://www.w3.org/2000/svg" xmlns:xlink="http://www.w3.org/1999/xlink" xmlns:a="http://ns.adobe.com/AdobeSVGViewerExtensions/3.0/"
	 x="0px" y="0px" width="76px" height="41.5px" viewBox="0 0 76 41.5" style="enable-background:new 0 0 76 41.5;"
	 xml:space="preserve">
<style type="text/css">
	.st0{fill:#23D6DC;}
</style>
<defs>
</defs>
<g id="new_1_">
	<g>
		<path class="st0" d="M1.3,26.8h6.9c1.5,0,3-0.4,4.2-1.3L37,9.2c0.6-0.4,1.5-0.4,2.1,0l24.5,16.4c1.2,0.8,2.7,1.3,4.2,1.3h6.9
			c1.2,0,1.8-1.4,0.9-2.1L39.1,0.3c-0.6-0.4-1.5-0.4-2.1,0L0.5,24.7C-0.5,25.4,0.1,26.8,1.3,26.8z"/>
	</g>
	<g>
		<path class="st0" d="M74.7,41.5H1.3c-1.2,0-1.8-1.4-0.9-2.1L37,14.9c0.6-0.4,1.5-0.4,2.1,0l36.5,24.4
			C76.5,40.1,75.9,41.5,74.7,41.5z"/>
	</g>
</g>
</svg>
