<?xml version="1.0" encoding="utf-8"?>
<!-- Generator: Adobe Illustrator 16.0.0, SVG Export Plug-In . SVG Version: 6.00 Build 0)  -->
<!DOCTYPE svg PUBLIC "-//W3C//DTD SVG 1.1//EN" "http://www.w3.org/Graphics/SVG/1.1/DTD/svg11.dtd">
<svg version="1.1" id="Layer_1" xmlns="http://www.w3.org/2000/svg" xmlns:xlink="http://www.w3.org/1999/xlink" x="0px" y="0px"
	 width="512px" height="512px" viewBox="0 0 512 512" enable-background="new 0 0 512 512" xml:space="preserve">
<g id="Layer_1_1_">
	<g>
		<circle fill="none" stroke="#F2F2F2" stroke-width="30" stroke-miterlimit="10" cx="256.139" cy="255.501" r="224.445"/>
		<path fill="#F7F7F7" d="M173.845,123.604c10.345,11.904,9.081,29.942-2.822,40.289c-11.903,10.348-29.942,9.081-40.289-2.82
			c-10.346-11.908-9.081-29.945,2.822-40.292C145.462,110.437,163.501,111.7,173.845,123.604"/>
		<path fill="#F7F7F7" d="M295.064,211.359c22.642,26.05,19.871,65.516-6.173,88.159c-26.051,22.639-65.522,19.871-88.162-6.18
			c-22.64-26.047-19.873-65.52,6.174-88.155C232.956,182.541,272.426,185.304,295.064,211.359"/>
		<path fill="#F7F7F7" d="M367.739,345.891c10.539,12.131,9.251,30.506-2.88,41.047c-12.125,10.537-30.499,9.252-41.041-2.875
			c-10.539-12.129-9.252-30.508,2.873-41.049C338.822,332.479,357.197,333.762,367.739,345.891"/>
		
			<rect x="101.551" y="250.026" transform="matrix(0.656 0.7548 -0.7548 0.656 277.1383 -100.7023)" fill="#F7F7F7" width="294.969" height="7.265"/>
	</g>
</g>
<g id="Layer_2">
</g>
</svg>
