<!-- Generator: Adobe Illustrator 19.1.0, SVG Export Plug-In  -->
<svg version="1.1"
	 xmlns="http://www.w3.org/2000/svg" xmlns:xlink="http://www.w3.org/1999/xlink" xmlns:a="http://ns.adobe.com/AdobeSVGViewerExtensions/3.0/"
	 x="0px" y="0px" width="44.6px" height="71.9px" viewBox="0 0 44.6 71.9" style="enable-background:new 0 0 44.6 71.9;"
	 xml:space="preserve">
<style type="text/css">
	.st0{fill:#FFFFFF;}
</style>
<defs>
</defs>
<g id="new_1_">
	<path class="st0" d="M22.3,0C10,0,0,9.2,0,21.9c0,11.9,11.9,25.5,20.4,35.7c1.4,1.7,2.6,1.8,4,0.1C33.2,47.4,44.6,33,44.6,21.9
		C44.6,8.1,34.6,0,22.3,0z M22.3,31c-6.1,0-11-4.9-11-11c0-6.1,4.9-11,11-11c6.1,0,11,4.9,11,11C33.3,26.1,28.4,31,22.3,31z"/>
	<ellipse class="st0" cx="22.3" cy="68.3" rx="14.7" ry="3.7"/>
</g>
</svg>
