<?xml version="1.0" encoding="utf-8"?>
<!-- Generator: Adobe Illustrator 16.0.0, SVG Export Plug-In . SVG Version: 6.00 Build 0)  -->
<!DOCTYPE svg PUBLIC "-//W3C//DTD SVG 1.1//EN" "http://www.w3.org/Graphics/SVG/1.1/DTD/svg11.dtd">
<svg version="1.1" id="Layer_1" xmlns="http://www.w3.org/2000/svg" xmlns:xlink="http://www.w3.org/1999/xlink" x="0px" y="0px"
	 width="512px" height="512px" viewBox="0 0 512 512" enable-background="new 0 0 512 512" xml:space="preserve">
<g id="Layer_1_1_">
	<g>
		<circle fill="none" stroke="#F2F2F2" stroke-width="30" stroke-miterlimit="10" cx="256.139" cy="255.501" r="224.445"/>
		<g>
			<path fill="#F2F2F2" d="M254.475,307.449c-27.273,0-60.516-26.795-60.516-65.329v-90.116c0-3.446,2.795-6.246,6.245-6.246
				h108.542c3.451,0,6.246,2.8,6.246,6.246v90.116C314.992,278.512,290.9,307.449,254.475,307.449"/>
			<path fill="#F2F2F2" d="M218.32,271.771c-45.756,0-68.956-36.981-68.956-109.914v-5.951l5.945-0.067
				c25.869-0.3,43.082-0.3,63.011-0.3v12.038c-18.31,0-34.321,0-56.868,0.235c1.108,61.837,19.741,91.917,56.868,91.917V271.771
				L218.32,271.771z"/>
			<path fill="#F2F2F2" d="M293.82,271.771v-12.039c37.126,0,55.76-30.083,56.867-91.918c-22.548-0.235-38.559-0.235-56.867-0.235
				v-12.038c19.932,0,37.145,0,63.006,0.3l5.948,0.067v5.951C362.774,234.791,339.575,271.771,293.82,271.771"/>
			<path fill="#F2F2F2" d="M294.689,365.742h-80.432l3.3-16.244c0.741-3.637,3.617-6.811,7.782-8.182
				c7.759-2.551,14.121-9.691,16.661-19.273l0.155-0.594c0,0,6.922,1.277,12.317,1.277c5.806,0,11.64-1.277,11.64-1.277l0.156,0.592
				c2.563,9.672,9.02,16.854,16.875,19.344c4.092,1.295,6.918,4.414,7.737,7.955L294.689,365.742z"/>
		</g>
	</g>
</g>
<g id="Layer_2">
</g>
</svg>
